<svg height="512" viewBox="0 0 60 60" width="512" xmlns="http://www.w3.org/2000/svg"><g id="Page-1" fill="none" fill-rule="evenodd"><g id="007---UV-Protective-Fabric" fill="rgb(0,0,0)" fill-rule="nonzero"><path id="Shape" d="m60 47c0-1.6568542-1.3431458-3-3-3h-7v-8h3c.3905653-.0000304.745371-.227441.9085088-.5823033.1631378-.3548624.1047492-.7722273-.1495088-1.0686967l-6-7c-.1955514-.2118158-.4707184-.3322804-.759-.3322804s-.5634486.1204646-.759.3322804l-6 7c-.254258.2964694-.3126466.7138343-.1495088 1.0686967.1631378.3548623.5179435.5822729.9085088.5823033h3v8h-11v-2h2c.4043959-.0000863.7689341-.2437275.923678-.6173454.1547439-.373618.0692299-.8036603-.216678-1.0896546l-5-5c-.3904999-.3903819-1.0235001-.3903819-1.414 0l-5 5c-.2859079.2859943-.3714219.7160366-.216678 1.0896546.1547439.3736179.5192821.6172591.923678.6173454h2v2h-11v-8h3c.3905653-.0000304.745371-.227441.9085088-.5823033.1631378-.3548624.1047492-.7722273-.1495088-1.0686967l-6-7c-.1955514-.2118158-.4707184-.3322804-.759-.3322804s-.5634486.1204646-.759.3322804l-6 7c-.25425802.2964694-.31264664.7138343-.14950881 1.0686967.16313782.3548623.5179435.5822729.90850881.5823033h3v8h-7c-1.6568542.0000001-2.99999987 1.3431458-2.99999987 3s1.34314567 2.9999999 2.99999987 3h2.132l-2.706 4.058c-1.51041367.3013189-2.54727443 1.6974466-2.39918206 3.2304865.14809238 1.5330398 1.43302021 2.7048817 2.97318206 2.7115135h54c1.6568542 0 3-1.3431458 3-3s-1.3431458-3-3-3h-2.132l2.706-4.058c1.4080716-.2744815 2.4247684-1.5074254 2.426-2.942zm-15-13h-1.826l3.826-4.463 3.826 4.463h-1.826c-.5522847 0-1 .4477153-1 1v9h-2v-9c0-.5522847-.4477153-1-1-1zm-17 6h-.586l2.586-2.586 2.586 2.586h-.586c-.5522847 0-1 .4477153-1 1v3h-2v-3c0-.5522847-.4477153-1-1-1zm-17-6h-1.826l3.826-4.463 3.826 4.463h-1.826c-.5522847 0-1 .4477153-1 1v9h-2v-9c0-.5522847-.4477153-1-1-1zm-9 13c0-.5522847.44771525-1 1-1h54c.5522847 0 1 .4477153 1 1s-.4477153 1-1 1h-54c-.55228475 0-1-.4477153-1-1zm42.868 7 2.667-4h2.6l-2.667 4zm-29.736-4-2.667 4h-2.6l2.667-4zm2.4 0h2.6l-2.667 4h-2.6zm5 0h2.6l-2.667 4h-2.6zm5 0h2.6l-2.667 4h-2.6zm5 0h2.6l-2.667 4h-2.6zm5 0h2.6l-2.667 4h-2.6zm5 0h2.6l-2.667 4h-2.6zm-32.4 0-2.667 4h-2.6l2.667-4zm47.868 7c0 .5522847-.4477153 1-1 1h-54c-.55228475 0-1-.4477153-1-1s.44771525-1 1-1h54c.5522847 0 1 .4477153 1 1zm-8.132-3 2.667-4h2.6l-2.667 4z"/><path id="Shape" d="m30 6c-7.7319865 0-14 6.2680135-14 14s6.2680135 14 14 14 14-6.2680135 14-14c-.0082673-7.7285595-6.2714405-13.99173268-14-14zm0 26c-6.627417 0-12-5.372583-12-12s5.372583-12 12-12 12 5.372583 12 12c-.0071648 6.624447-5.375553 11.9928352-12 12z"/><path id="Shape" d="m30 5c.5522847 0 1-.44771525 1-1v-3c0-.55228475-.4477153-1-1-1s-1 .44771525-1 1v3c0 .55228475.4477153 1 1 1z"/><path id="Shape" d="m21.134 6.644c.1773616.31195078.5082732.50495322.8671183.5057421.3588451.00078889.6906021-.19075673.8693336-.50192468.1787314-.31116795.1770325-.694247-.0044519-1.00381742l-1.5-2.6c-.2780058-.47421361-.886647-.63512861-1.3626943-.36027453s-.640996.88241457-.3693057 1.36027453z"/><path id="Shape" d="m13.046 11.366 2.6 1.5c.3095704.1814844.6926495.1831833 1.0038174.0044519.311168-.1787315.5027136-.5104885.5019247-.8693336s-.1937913-.6897567-.5057421-.8671183l-2.6-1.5c-.47786-.27169029-1.0854205-.10674157-1.3602745.3693057-.2748541.4760473-.1139391 1.0846885.3602745 1.3626943z"/><path id="Shape" d="m11 21h3c.5522847 0 1-.4477153 1-1s-.4477153-1-1-1h-3c-.5522847 0-1 .4477153-1 1s.4477153 1 1 1z"/><path id="Shape" d="m45 20c0 .5522847.4477153 1 1 1h3c.5522847 0 1-.4477153 1-1s-.4477153-1-1-1h-3c-.5522847 0-1 .4477153-1 1z"/><path id="Shape" d="m43.857 13c.1755887.0003718.3481299-.0458692.5-.134l2.6-1.5c.4742136-.2780058.6351286-.886647.3602745-1.3626943-.274854-.47604727-.8824145-.64099599-1.3602745-.3693057l-2.6 1.5c-.3919413.2263139-.5830208.6876562-.4658809 1.1248223.1171398.4371661.5132928.7411578.9658809.7411777z"/><path id="Shape" d="m37.5 7.01c.4782803.27612934 1.0898496.11226816 1.366-.366l1.5-2.6c.2716903-.47785996.1067416-1.08542045-.3693057-1.36027453s-1.0846885-.11393908-1.3626943.36027453l-1.5 2.6c-.2761293.47828031-.1122682 1.08984962.366 1.366z"/><path id="Shape" d="m28 15c-.5522847 0-1 .4477153-1 1v5c0 1.1045695-.8954305 2-2 2s-2-.8954305-2-2v-5c0-.5522847-.4477153-1-1-1s-1 .4477153-1 1v5c0 2.209139 1.790861 4 4 4s4-1.790861 4-4v-5c0-.5522847-.4477153-1-1-1z"/><path id="Shape" d="m37.063 15.649-2.063 5.503-2.063-5.5c-.1250429-.3347579-.4191786-.5773773-.7716089-.6364658-.3524303-.0590886-.7096127.0743307-.937.35s-.2904341.6517079-.1653911.9864658l3 8c.1458609.3912402.5194545.6506706.937.6506706s.7911391-.2594304.937-.6506706l3-8c.1932997-.5174908-.0695092-1.0937003-.587-1.287s-1.0937003.0695092-1.287.587z"/></g></g></svg>